<svg width="20.000000" height="20.000000" viewBox="0 0 26 26" fill="none" xmlns="http://www.w3.org/2000/svg" xmlns:xlink="http://www.w3.org/1999/xlink">
	<desc>
			Created with Pixso.
	</desc>
	<defs/>
	<path id="Vector" d="M1.91 17.59C2.51 19.04 3.4 20.37 4.51 21.48C5.62 22.59 6.95 23.48 8.4 24.08C9.86 24.68 11.42 25 13 25C14.57 25 16.13 24.68 17.59 24.08C19.04 23.48 20.37 22.59 21.48 21.48C22.59 20.37 23.48 19.04 24.08 17.59C24.68 16.13 25 14.57 25 13C25 11.42 24.68 9.86 24.08 8.4C23.48 6.95 22.59 5.62 21.48 4.51C20.37 3.4 19.04 2.51 17.59 1.91C16.13 1.31 14.57 1 13 1C11.42 1 9.86 1.31 8.4 1.91C6.95 2.51 5.62 3.4 4.51 4.51C3.4 5.62 2.51 6.95 1.91 8.4C1.31 9.86 1 11.42 1 13C1 14.57 1.31 16.13 1.91 17.59ZM11.11 14.88C11.61 15.38 12.29 15.66 13 15.66C13.7 15.66 14.38 15.38 14.88 14.88C15.38 14.38 15.66 13.7 15.66 13C15.66 12.29 15.38 11.61 14.88 11.11C14.38 10.61 13.7 10.33 13 10.33C12.29 10.33 11.61 10.61 11.11 11.11C10.61 11.61 10.33 12.29 10.33 13C10.33 13.7 10.61 14.38 11.11 14.88ZM13 15.66L13 25M10.33 13L1.33 10.33M15.66 13L24.66 10.33" stroke="#030712" stroke-opacity="0.700000" stroke-width="2.000000" stroke-linejoin="round" stroke-linecap="round"/>
</svg>
